inDegrees=no
num_controls=7
num_derivatives=13
num_iterations=217
num_multipliers=7
num_parameters=0
num_slacks=7
num_states=26
objective=0.540384
objective_accelerations=0.064291
objective_balance=0.003320
objective_effort=0.046297
objective_height=0.417260
objective_ligament=0.009217
solver_duration=2606.199884
status=Solve_Succeeded
success=true
DataType=double
version=3
OpenSimVersion=4.5
endheader
time	/jointset/ground_pelvis/pelvis_tilt/value	/jointset/ground_pelvis/pelvis_tx/value	/jointset/ground_pelvis/pelvis_ty/value	/jointset/hip_r/hip_flexion_r/value	/jointset/hip_r/hip_adduction_r/value	/jointset/hip_r/hip_rotation_r/value	/jointset/back/lumbar_extension/value	/jointset/patellofemoral_r/patellar_flexion_r/value	/jointset/knee_r/knee_flexion_r/value	/jointset/knee_r/knee_adduction_r/value	/jointset/knee_r/knee_rotation_r/value	/jointset/ankle_r/ankle_angle_r/value	/jointset/subtalar_r/subtalar_angle_r/value	/jointset/ground_pelvis/pelvis_tilt/speed	/jointset/ground_pelvis/pelvis_tx/speed	/jointset/ground_pelvis/pelvis_ty/speed	/jointset/hip_r/hip_flexion_r/speed	/jointset/hip_r/hip_adduction_r/speed	/jointset/hip_r/hip_rotation_r/speed	/jointset/back/lumbar_extension/speed	/jointset/patellofemoral_r/patellar_flexion_r/speed	/jointset/knee_r/knee_flexion_r/speed	/jointset/knee_r/knee_adduction_r/speed	/jointset/knee_r/knee_rotation_r/speed	/jointset/ankle_r/ankle_angle_r/speed	/jointset/subtalar_r/subtalar_angle_r/speed	/forceset/tau_hip_flexion_r	/forceset/tau_hip_adduction_r	/forceset/tau_hip_rotation_r	/forceset/tau_knee_flexion_r	/forceset/tau_ankle_angle_r	/forceset/tau_subtalar_angle_r	/forceset/tau_lumbar_extension	lambda_cid13_p0	lambda_cid14_p0	lambda_cid14_p1	lambda_cid14_p2	lambda_cid14_p3	lambda_cid14_p4	lambda_cid14_p5	/jointset/ground_pelvis/pelvis_tilt/accel	/jointset/ground_pelvis/pelvis_tx/accel	/jointset/ground_pelvis/pelvis_ty/accel	/jointset/hip_r/hip_flexion_r/accel	/jointset/hip_r/hip_adduction_r/accel	/jointset/hip_r/hip_rotation_r/accel	/jointset/back/lumbar_extension/accel	/jointset/patellofemoral_r/patellar_flexion_r/accel	/jointset/knee_r/knee_flexion_r/accel	/jointset/knee_r/knee_adduction_r/accel	/jointset/knee_r/knee_rotation_r/accel	/jointset/ankle_r/ankle_angle_r/accel	/jointset/subtalar_r/subtalar_angle_r/accel	gamma_cid13_p0	gamma_cid14_p0	gamma_cid14_p1	gamma_cid14_p2	gamma_cid14_p3	gamma_cid14_p4	gamma_cid14_p5
1.5	-0.2133391817288012	0.01239188574559161	0.8158249591185061	0.9686433573313582	-0.218224183927519	-0.1313121267960419	-0.3096879122133226	0.8430276273757924	0.8430276273756702	-0.02170580666956473	0.1745321087488859	0.2701437921230839	0.07463630717225019	0.4961932401053197	0.2052566196970415	0.567732750443616	-2.259396127471362	0.006892833430058233	-0.2262438039318419	0.6990778291560775	-2.280610003949047	-2.28061000394898	0.4542834172508475	-1.802584313901923e-05	-0.6292293782125569	-0.1850051556236131	-0.1358319949956223	-0.02069065047295007	0.01143177048124233	-0.3452783406130007	0.0875154235694216	-0.001869120721817551	0.1705858514630686	-22.53236034636385	-11.93157236782771	-0.154773933105478	-2.652082797321933	-3.548990445437317	-643.5979155396129	61.46540021677201	0.4554788874511163	0.634770420293602	-0.7298456184377865	-1.218185188585981	-0.1792329118078515	-0.8652658104997341	1.756616615461807	-1.290046641587168	-1.290046641587194	0.3637167555290191	-0.04422247322015781	-0.7132624520798105	-0.2764343988655627	1.719897415945499e-07	2.411243727710889e-08	-2.275296096973455e-06	1.985283109028052e-07	2.443508042617574e-07	1.797657960931604e-07	-1.27584318261908e-06
1.51	-0.2083550450141863	0.01447590584686588	0.8214645632258144	0.9459910862465211	-0.218164820184148	-0.1336199780828593	-0.3026105815470492	0.8201599423902426	0.820159942390151	-0.01714513406995578	0.1745321687308803	0.2638165986785715	0.07277200629932058	0.5005510001216938	0.2115136783138814	0.56006366165448	-2.270749073560117	0.004984512538751318	-0.235311068611791	0.716282604315395	-2.292607938318376	-2.292607938318346	0.4578472962468041	1.692121109786181e-05	-0.6361100307631665	-0.1878077229028043	-0.1281026744243644	-0.02229415926535751	0.01125140682469902	-0.3409205346318363	0.09021972365457227	-0.003099791569812955	0.1636348800699319	-24.01060799072835	-10.81544192127713	-0.3674618286040892	-2.762515486326526	-3.852272626212016	-637.9503201055122	61.08448114921359	0.4134595091931205	0.6161782432629975	-0.8040725691152096	-1.047497120159336	-0.1961901239217751	-0.9249514696463896	1.686552998678821	-1.106844469379674	-1.106844469385112	0.3517584545738387	0.02531562466416199	-0.6604957337147974	-0.2755184034870499	1.768183102796934e-07	-7.199831558506348e-09	-2.527509263098567e-06	-8.042416982139375e-08	2.90970898580113e-07	1.579574575952588e-07	-1.344026100520522e-06
1.52	-0.2033298237093155	0.0166214974664853	0.8270237500332386	0.9232345561405684	-0.218124451338916	-0.1360180009510571	-0.2953643741226802	0.7971818425340449	0.7971818425339836	-0.01254901568379828	0.1745321706493952	0.2574235928931203	0.07088100965139085	0.5044101581565712	0.2175709233660718	0.5516492904667958	-2.280247931694433	0.003093853802258008	-0.2442781202078961	0.7328531807751976	-2.30269297807866	-2.302692978078666	0.4613725745605547	-2.963853792318851e-05	-0.6423918464003061	-0.1903443106236419	-0.1203733538531064	-0.02389766805776541	0.01107104316815439	-0.3365627286506719	0.09292402373972276	-0.004330462417809019	0.1566839086767954	-25.47033543355527	-9.705166433455647	-0.5786250535514825	-2.87610281303762	-4.152283078659877	-632.4005845636533	60.75284354853692	0.3557584911517488	0.5948077073637124	-0.8789020981473831	-0.8473675976980425	-0.1757004808451315	-0.845223193730951	1.62977687555884	-0.9074677197780703	-0.9074677197780746	0.3559966190877873	-0.0605238338717414	-0.5934950693857696	-0.223238487194871	1.793365767791908e-07	-6.776144537290346e-08	-2.917189934338545e-06	-6.109586822146624e-07	3.712567004556199e-07	1.055146197790731e-07	-1.403073149980703e-06
1.53	-0.1982685883677106	0.01882662981031612	0.8324951804520646	0.9003923457905133	-0.2181025853063471	-0.1385070528792214	-0.287955737428558	0.7741124087879928	0.7741124087879898	-0.007919481457795466	0.174532416051174	0.2509709270050776	0.06896645803148138	0.5077466769532016	0.2234182984675281	0.5425234195536286	-2.287883014422473	0.001278605377934809	-0.2534703427873567	0.7487570295824061	-2.310869281105178	-2.310869281105182	0.4645759032780385	4.657670143609399e-05	-0.6480363028590368	-0.1925287715225524	-0.1124817228874728	-0.02604062564066159	0.01081661350711741	-0.3327314206558653	0.09615653125087892	-0.005421134097941945	0.1496429208163782	-26.90761521575145	-8.438668606058243	-0.6891080983629889	-3.020049784946547	-4.574493162336489	-627.2206637655498	60.71205705184536	0.3090484467030062	0.5742252602843413	-0.9464406452422387	-0.674931593395427	-0.1851556198605007	-0.946856500678827	1.553119613268715	-0.7240739769368292	-0.7240739769364883	0.3081239779892584	0.03649691800501695	-0.5340505122686898	-0.2112693972242492	1.794001472064393e-07	-1.59400488227256e-07	-3.452929829763065e-06	-1.408799103256315e-06	4.873123166105998e-07	2.052262643721106e-08	-1.452413339222044e-06
1.54	-0.1931766978635827	0.02108914047491105	0.8378719499502907	0.8774831140165701	-0.2180990154773486	-0.1410861539753052	-0.2803915761003704	0.7509709395351059	0.7509709395351614	-0.003256789348635862	0.1745323841484062	0.2444649906368172	0.0670310179013858	0.5105411906612056	0.2290465875188926	0.5327171063468255	-2.293652216472051	-0.0005653869117719668	-0.2622879537918261	0.7639581075882895	-2.317100079445624	-2.317100079445625	0.4680041511919452	-8.509945259448277e-05	-0.6530459424438466	-0.1945220126608673	-0.1045900919218385	-0.02818358322355722	0.01056218384608206	-0.3289001126610586	0.09938903876203521	-0.00651180577807393	0.1426019329559617	-28.3196019271391	-7.177911632463585	-0.8017065764122165	-3.162388789993487	-4.984792669238987	-622.1300515062421	60.68161922852969	0.2473574734264395	0.5509904973453665	-1.014990556874578	-0.4741914620055768	-0.1814492539218476	-0.7703008787327252	1.489222715293814	-0.5183667825636716	-0.5183667825636714	0.4009804583723391	-0.1021021125497116	-0.4665316946016229	-0.1849945350757548	1.696512206947421e-07	-2.923402676364272e-07	-4.079156321562777e-06	-2.551461762085452e-06	6.407829620254382e-07	-1.167869932604478e-07	-1.404865235517216e-06
1.55	-0.18805962772643	0.02340671144142628	0.8431473467779604	0.8545258366191779	-0.2181130594473089	-0.143755701944073	-0.272678927951742	0.7277769305410379	0.7277769305411148	0.001437076764632427	0.1745322441032282	0.2379124072795963	0.06507799998567361	0.5127888508278922	0.2344182915263301	0.5222594371490125	-2.297483686855398	-0.002234641278014233	-0.2715725210728299	0.7784423976052909	-2.321363200547225	-2.321363200547212	0.4707898808547311	4.033740355107119e-05	-0.6573630958179094	-0.1960356974440759	-0.09706412563624192	-0.02945214839790771	0.01003924103212282	-0.3245842501996459	0.1018281155095418	-0.007908574819694612	0.1358262238384838	-29.70464497132838	-6.213723462523596	-1.124658933825882	-3.24208139805589	-5.115042001596843	-617.3979299045	60.16491757448966	0.2008288958797229	0.5230525283681321	-1.076663236367128	-0.2897503422556514	-0.1595999007651135	-1.000380904675113	1.408663465082171	-0.329534330765344	-0.3295343307631732	0.2194910342902958	0.06640554565668803	-0.397990198414332	-0.1290800624794182	1.485965911881732e-07	-4.728656782935391e-07	-4.809639109186074e-06	-4.091419607930582e-06	8.373622281092416e-07	-3.143756172376083e-07	-1.245684968200504e-06
1.56	-0.1829226092660928	0.02577655788320091	0.8483150652866256	0.8315398194148008	-0.2181437832354895	-0.1465166648360291	-0.264825310638908	0.7045504404245926	0.7045504404246911	0.006159224537340384	0.1745326662187915	0.2313199157807135	0.06311094029962212	0.514530855298178	0.2395016825707727	0.511181442545899	-2.299400177869001	-0.003901350555844179	-0.2805709384294699	0.7921519404294485	-2.323596303921105	-2.323596303921078	0.4736604830798603	2.733269809653086e-05	-0.6610275707762016	-0.1973303667287251	-0.08953815935064516	-0.03072071357225879	0.009516298218162144	-0.3202683877382334	0.1042671922570482	-0.009305343861316137	0.1290505147210062	-31.06226329680694	-5.25420345497785	-1.451460001596746	-3.31769233325265	-5.223550007629733	-612.744864694606	59.58414643888754	0.1462263341462872	0.4933279047463591	-1.139055637934629	-0.09119558805686144	-0.1809402362393818	-0.7130708938599586	1.334273276725088	-0.1123632370194136	-0.1123632370194129	0.4179549708409798	-0.1297904248697362	-0.3359960114475049	-0.1411914353638841	1.359786018143866e-07	-5.772970019188206e-07	-5.169445693406358e-06	-4.986662408062591e-06	9.460645487567498e-07	-4.534254966468228e-07	-1.046741411230244e-06
1.57	-0.1777709700919511	0.0281957327758055	0.853368970656274	0.8085446979605178	-0.2181907932842135	-0.1493668017777494	-0.2568386036222867	0.6813120644750039	0.6813120644750357	0.01090962962404392	0.1745326434663734	0.2246942607419587	0.06113253443974515	0.5157012870072243	0.2442773272599673	0.4995075913620038	-2.29928131605287	-0.005477208034488058	-0.2894622462615475	0.8050267711266221	-2.323725959501697	-2.323725959501642	0.4763765041029739	-1.182429824178564e-05	-0.6639845344190682	-0.1982856270009986	-0.08155595284144644	-0.03266270718710382	0.008723980701371753	-0.3168008508387806	0.1076121233251799	-0.01024347975235365	0.1219474418155809	-32.38758827131166	-3.998820196592523	-1.499247722465274	-3.469802916721989	-5.560818519905678	-608.4410750642179	59.62792293107609	0.08805680434470763	0.461476299914502	-1.195467308047649	0.1147846564632027	-0.1436860868743866	-0.978302986410905	1.239684200977697	0.08964571299272435	0.08964571299684192	0.1908027035523992	0.06107570585416412	-0.257541690552064	-0.06431060034127324	1.339064126065775e-07	-5.86610716754315e-07	-5.065907023372879e-06	-5.076011401053205e-06	9.449206876088897e-07	-5.193019453461055e-07	-7.980937421930471e-07
